<svg width="28" height="28" fill="none" xmlns="http://www.w3.org/2000/svg"><g clip-path="url(#clip0_75_897)" fill="#fff"><path d="M23.958 14.947h-2.165c.22.605.341 1.257.341 1.936v8.184c0 .284-.05.556-.139.809h3.58A2.428 2.428 0 0028 23.45v-4.462a4.046 4.046 0 00-4.042-4.042zM5.866 16.883c0-.68.12-1.331.341-1.936H4.042A4.047 4.047 0 000 18.99v4.462a2.428 2.428 0 002.425 2.425h3.58a2.414 2.414 0 01-.139-.809v-8.184zm10.609-4.042h-4.95a4.047 4.047 0 00-4.042 4.042v8.184c0 .447.362.809.808.809H19.71a.808.808 0 00.808-.809v-8.184a4.047 4.047 0 00-4.042-4.042zM14 2.124c-2.68 0-4.86 2.18-4.86 4.861A4.864 4.864 0 0014 11.846a4.864 4.864 0 004.861-4.861c0-2.68-2.18-4.861-4.86-4.861zM5.464 6.655A3.64 3.64 0 001.83 10.29a3.64 3.64 0 005.068 3.34 3.658 3.658 0 001.776-1.632c.272-.51.427-1.09.427-1.708a3.64 3.64 0 00-3.636-3.635zm17.072 0A3.64 3.64 0 0018.9 10.29c0 .617.155 1.198.428 1.708a3.657 3.657 0 001.775 1.633 3.64 3.64 0 005.068-3.34 3.64 3.64 0 00-3.635-3.636z"/></g><defs><clipPath id="clip0_75_897"><path fill="#fff" d="M0 0h28v28H0z"/></clipPath></defs></svg>