<svg width="28" height="28" fill="none" xmlns="http://www.w3.org/2000/svg"><g clip-path="url(#clip0_75_661)" fill="#fff"><path d="M12.77 5.77h2.46v1.934h-2.46V5.77zm-2.872 5.863v.852L14 10.805l4.102 1.68v-.852c0-.612-.33-1.18-.862-1.484l-1.407-.804h-3.666l-1.407.804a1.713 1.713 0 00-.862 1.484zm0 2.625v3.844h8.204v-3.844L14 12.578l-4.102 1.68zm5.743 2.203h-3.282v-1.64h3.282v1.64z"/><path d="M14 0a13.95 13.95 0 00-9.302 3.538l5.21 5.21.038-.023 1.183-.676v-3.92h5.742v3.92l1.183.676a3.357 3.357 0 011.688 2.908v6.95l4.72 4.719A13.947 13.947 0 0028 14c0-7.732-6.268-14-14-14zm0 28c3.57 0 6.829-1.337 9.302-3.538l-3.56-3.56v2.121H8.258v-11.39c0-.62.173-1.216.484-1.731L3.538 4.698A13.946 13.946 0 000 14c0 7.732 6.268 14 14 14z"/><path d="M9.898 19.742h8.204v1.64H9.898v-1.64z"/></g><defs><clipPath id="clip0_75_661"><path fill="#fff" d="M0 0h28v28H0z"/></clipPath></defs></svg>