<svg width="61" height="58" fill="none" xmlns="http://www.w3.org/2000/svg"><path d="M1.442.504c-.694 0-1.26.566-1.26 1.26V46.73c0 3.293.96 5.946 2.913 7.875 3.106 3.071 7.55 3.15 7.993 3.15h40.045c.069 0 .502.01 1.102-.079-3.922-.497-9.607-3.199-9.607-10.946V1.764a1.26 1.26 0 00-1.26-1.26H1.442zM45.148 8.97v37.76c0 8.372 8.082 8.505 8.426 8.505.68-.005 6.3-.26 7.166-6.694.06-.546.08-1.117.08-1.732V15.15c-.045-1.826-1.025-5.03-4.293-5.906-1.023.246-1.875.704-2.52 1.378-1.668 1.743-1.614 4.425-1.614 4.45v30.594c0 .699-.561 1.26-1.26 1.26s-1.26-.561-1.26-1.26V15.112c-.005-.094-.128-3.608 2.205-6.142h-6.93zM8.096 10.86h24.846a1.26 1.26 0 110 2.52H8.096c-.694 0-1.26-.567-1.26-1.26 0-.694.566-1.26 1.26-1.26zm0 5.04h24.846a1.26 1.26 0 110 2.52H8.096c-.694 0-1.26-.567-1.26-1.26 0-.695.566-1.26 1.26-1.26zm.59 10.08h8.545c.694 0 1.26.566 1.26 1.26 0 .694-.566 1.26-1.26 1.26H8.687c-.694 0-1.26-.567-1.26-1.26 0-.694.566-1.26 1.26-1.26zm14.53 0h9.726a1.26 1.26 0 110 2.52h-9.726c-.694 0-1.26-.567-1.26-1.26 0-.694.566-1.26 1.26-1.26zm-14.53 5.04h8.545a1.26 1.26 0 110 2.52H8.687a1.26 1.26 0 110-2.52zm14.53 0h9.726c.699 0 1.26.56 1.26 1.26 0 .698-.561 1.26-1.26 1.26h-9.726a1.26 1.26 0 110-2.52zm0 4.764h9.726c.699 0 1.26.561 1.26 1.26s-.561 1.26-1.26 1.26h-9.726a1.26 1.26 0 110-2.52zm-14.53.276h8.545a1.26 1.26 0 110 2.52H8.687a1.26 1.26 0 110-2.52zm14.53 4.764h9.726c.699 0 1.26.561 1.26 1.26s-.561 1.26-1.26 1.26h-9.726a1.26 1.26 0 110-2.52zm-14.53.276h8.545a1.26 1.26 0 110 2.52H8.687a1.26 1.26 0 110-2.52zm14.53 4.449h9.726c.699 0 1.26.561 1.26 1.26s-.561 1.26-1.26 1.26h-9.726a1.26 1.26 0 110-2.52zm-14.53.59h8.545a1.26 1.26 0 110 2.52H8.687a1.26 1.26 0 110-2.52z" fill="#89A9D1"/></svg>