<svg width="113" height="113" fill="none" xmlns="http://www.w3.org/2000/svg"><path d="M74.59 33.72l4.68-4.68 4.682 4.68-4.681 4.681-4.681-4.68zM16.547 96.453C27.579 107.485 42.039 113 56.498 113c13.43 0 26.857-4.761 37.54-14.277L63.522 68.206l-4.682 4.682-7.023-7.023-4.681 4.682 4.681 4.682-4.681 4.681-4.682-4.681-14.046 14.045-4.682-4.682 14.046-14.045-4.682-4.682 4.682-4.682 4.682 4.682 4.681-4.682-7.022-7.023 4.682-4.682-30.518-30.517c-19.763 22.187-19.008 56.213 2.27 77.492z" fill="#fff" fill-opacity=".3"/><path d="M96.449 16.549C85.417 5.516 70.957 0 56.498 0 43.068 0 29.64 4.761 18.957 14.278l30.518 30.517 13.42-13.42-4.68-4.683 4.68-4.681 7.024 7.022 9.363-9.364 14.046 14.046-9.364 9.364 7.023 7.023-4.682 4.681-4.682-4.682-13.421 13.422L98.72 94.04c19.762-22.186 19.008-56.213-2.271-77.492z" fill="#fff" fill-opacity=".3"/><path d="M49.465 54.16l8.738-8.739 9.362 9.362-8.738 8.738-9.362-9.362zm13.42-13.419l4.68-4.68 9.363 9.361-4.681 4.681-9.362-9.362z" fill="#fff" fill-opacity=".3"/></svg>