<svg width="28" height="28" fill="none" xmlns="http://www.w3.org/2000/svg"><g clip-path="url(#clip0_75_1413)" fill="#fff"><path d="M9.337 14.293a2.756 2.756 0 001.044-.473c.977-.707 1.41-1.867.968-2.593-.482-.79-1.8-.737-2.813.162-.968.836-1.175 1.71-1.175 2.628 0 .649.208 1.807 1.476 2.813a7.297 7.297 0 012.122-1.118l.01-.004c-.622-.259-1.433-.77-1.632-1.415zM9.18 12.06c0-.272.216-.49.483-.49.266 0 .483.22.483.49 0 .272-.217.49-.483.49a.486.486 0 01-.483-.49zm11.476 1.958c-.003-.92-.209-1.793-1.178-2.63-1.012-.897-2.33-.952-2.813-.161-.442.726-.01 1.886.968 2.593.34.245.7.402 1.044.473-.12.387-.483.781-1.038 1.113-.764.456-1.176.512-6.06 2.134-1.807.614-2.883 1.834-2.883 3.264 0 1.019.52 1.805 1.244 2.38a6.053 6.053 0 011.686-1.2c-.764-.386-1-.679-1-1.18 0-.827 1.653-1.3 2.416-1.551v2.093l1.931-.861v-1.231c.764.253 2.413.725 2.413 1.55 0 1.373-3.932 2.183-5.605 3.337-.812.563-1.248 1.278-1.248 2.12 0 .482.056 1.08.903 1.675.24.192.575-.088.418-.358-.56-1.12.035-1.68 1.19-2.166v1.62a.966.966 0 001.93 0v-1.619c1.11.466 1.808 1.123 1.187 2.165-.154.265.174.553.417.358.821-.622.886-1.154.886-1.663 0-.783-.429-1.543-1.242-2.125 1.644-.594 3.098-1.593 3.098-3.342 0-1.208-.768-2.266-2.095-2.936.62-.223.932-.373 1.346-.62 1.814-1.084 2.085-2.49 2.085-3.232zm-2.304-1.468a.486.486 0 01-.483-.49c0-.271.217-.49.483-.49.267 0 .483.219.483.49s-.216.49-.483.49z"/><path d="M27.517 1.933h-6.613c-1.297 0-2.27.573-3.107 1.41-.91.91-1.383 2.933-2.832 2.933V3.594c.575-.334.966-.95.966-1.663a1.931 1.931 0 10-3.862 0c0 .713.39 1.329.965 1.663v11.507c.596-.19 1.25-.4 1.931-.619V9.646c.42-.21.757-.55.965-.97a1.98 1.98 0 001.685.98c.722 0 1.344-.4 1.675-.986 1.131 1.13 3.234 1.152 4.365.021l-1.641-1.64.753.311a2.897 2.897 0 003.784-1.567l-2.33-.966c2.257 0 3.296-1.417 3.296-2.896zM10.203 3.344c-.837-.838-1.81-1.41-3.107-1.41H.483c0 1.479 1.039 2.896 3.297 2.896l-2.331.965a2.897 2.897 0 003.784 1.568l.753-.312-1.64 1.64c1.13 1.132 3.233 1.11 4.364-.021.331.586.953.987 1.675.987h.021c.944-.01 1.665-.863 1.665-1.806V5.908c-.761-.624-1.197-1.894-1.868-2.564z"/></g><defs><clipPath id="clip0_75_1413"><path fill="#fff" d="M0 0h28v28H0z"/></clipPath></defs></svg>