<svg width="28" height="28" fill="none" xmlns="http://www.w3.org/2000/svg"><path d="M2.075 10.645a.438.438 0 00-.763.293v14.875c0 .456.14.88.38 1.23a.11.11 0 00.18 0l6.39-9.398a.11.11 0 00-.008-.135l-6.179-6.865zm16.366 8.315a.877.877 0 01-.65.29h-7.582a.877.877 0 01-.65-.29l-.552-.613a.11.11 0 00-.172.011l-6.306 9.274a.11.11 0 00.044.162c.281.132.596.206.927.206h21c.331 0 .645-.074.927-.206a.11.11 0 00.044-.161l-6.306-9.275a.11.11 0 00-.172-.011l-.552.613zm7.483-8.315l-6.178 6.865a.11.11 0 00-.009.135l6.39 9.397a.11.11 0 00.18.001c.24-.35.38-.774.38-1.23V10.936a.438.438 0 00-.763-.292zm-.293-.945L24.25 8.318a.11.11 0 00-.186.077v2.726c0 .1.123.148.19.073 1.008-1.123 1.12-1.279 1.364-1.407a.055.055 0 00.014-.087zM3.938 11.12V8.395a.11.11 0 00-.187-.077L2.368 9.7a.055.055 0 00.014.087c.268.144.404.334 1.364 1.406a.11.11 0 00.192-.073z" fill="#fff"/><path d="M10.283 18.375h7.434c.047 0 .091-.02.122-.054l5.306-5.896a.164.164 0 00.043-.11V1.314C23.188.588 22.6 0 21.875 0H6.125C5.4 0 4.812.588 4.812 1.313v11.002c0 .04.015.08.043.11l5.306 5.896a.164.164 0 00.122.054zM8.313 2.188h11.374a.437.437 0 110 .876H8.313a.437.437 0 110-.876zm0 3.5h11.374a.437.437 0 110 .875H8.313a.437.437 0 110-.875zm0 3.5h11.374a.437.437 0 110 .876H8.313a.437.437 0 110-.876zm0 3.5h11.374a.437.437 0 110 .876H8.313a.437.437 0 110-.876z" fill="#fff"/></svg>