<svg width="28" height="28" fill="none" xmlns="http://www.w3.org/2000/svg"><g clip-path="url(#clip0_74_191)" fill="#fff"><path d="M7.608 18.898a1.172 1.172 0 00-1.513-.117l-.012-.008-1.005 1.006c-.22.22-.341.512-.341.824-.014.628.539 1.18 1.166 1.166.365.006.69-.176.928-.444l.777-.777a1.166 1.166 0 000-1.65zm-2.796-3.416a1.168 1.168 0 00-1.65 0l-.879.88c-1.05 1.139.51 2.698 1.649 1.65l.88-.88a1.167 1.167 0 000-1.65zm5.181 6.078a1.16 1.16 0 00-.825.341l-.88.88a.222.222 0 00-.013.013c-.441.436-.434 1.207.012 1.637a1.168 1.168 0 001.65 0l.881-.881c.73-.728.205-1.995-.825-1.99zM17.82 8.612a4.67 4.67 0 01-5.782-.648l-2.04-2.04 2.546-2.546C9.809.31 5 .115 2.089 3.045c-2.927 2.908-2.74 7.711.323 10.447 2.23-1.247 4.973.494 4.793 3.034 1.476.16 2.727 1.498 2.794 2.976 1.39-.03 2.769 1.01 3.107 2.382a3.238 3.238 0 013.244.99l.023-.027c1.148.689 2.363-.727 1.497-1.758l.002-.003-4.636-4.635 1.456-1.456 4.583 4.583c1.139 1.049 2.699-.511 1.65-1.65l-4.583-4.583 1.456-1.456 4.583 4.583c.434.452 1.216.452 1.65 0a1.168 1.168 0 000-1.65l-6.21-6.21z"/><path d="M25.912 3.045c-2.791-2.79-7.332-2.79-10.123 0l-2.878 2.88.583.583a2.604 2.604 0 003.68 0l.728-.728c.387.391 7.496 7.488 7.696 7.702 3.055-2.737 3.236-7.534.314-10.437zm-11.16 21.133a1.168 1.168 0 00-1.65 0l-.88.88c-.453.435-.453 1.216 0 1.65.435.452 1.215.452 1.65 0l.88-.88c.452-.433.452-1.217 0-1.65z"/></g><defs><clipPath id="clip0_74_191"><path fill="#fff" d="M0 0h28v28H0z"/></clipPath></defs></svg>