<svg width="111" height="111" fill="none" xmlns="http://www.w3.org/2000/svg"><g clip-path="url(#clip0_75_878)" fill="#fff" fill-opacity=".5"><path d="M30.16 74.918c-1.541-1.604-4.239-1.803-6-.466l-.046-.03-3.984 3.985a4.584 4.584 0 00-1.353 3.268c-.052 2.489 2.139 4.675 4.624 4.624 1.447.024 2.736-.7 3.68-1.763l3.078-3.078a4.621 4.621 0 000-6.54zM19.076 61.372a4.63 4.63 0 00-6.54 0c-.42.422-3.008 3.008-3.487 3.489-4.16 4.514 2.02 10.697 6.537 6.54l3.49-3.49a4.627 4.627 0 000-6.54zm20.538 24.093a4.597 4.597 0 00-3.272 1.355l-3.489 3.49-.049.051c-1.748 1.727-1.722 4.786.05 6.488a4.632 4.632 0 006.54 0l3.491-3.491c2.892-2.885.813-7.909-3.271-7.893zM70.646 34.14c-7.14 4.501-16.711 3.647-22.925-2.567l-8.088-8.086 10.094-10.094C38.885 1.226 19.82.453 8.28 12.073-3.324 23.597-2.58 42.64 9.56 53.485c8.842-4.942 19.715 1.96 19 12.03 5.855.632 10.811 5.94 11.08 11.795 5.505-.118 10.974 4.006 12.315 9.444 4.583-1.228 9.72.294 12.86 3.925l.092-.11c4.551 2.733 9.365-2.879 5.933-6.966l.009-.011c-.071-.068-18.38-18.377-18.38-18.377l5.773-5.772 18.17 18.17c4.513 4.158 10.697-2.026 6.537-6.54l-18.167-18.17 5.772-5.773 18.17 18.17c1.72 1.792 4.82 1.791 6.54 0a4.632 4.632 0 000-6.54l-24.62-24.62z"/><path d="M102.72 12.07c-11.063-11.06-29.064-11.06-40.128 0-2.15 2.153-9.38 9.384-11.411 11.415l2.313 2.314c4.023 4.022 10.565 4.022 14.585 0l2.888-2.888c1.535 1.552 29.717 29.686 30.509 30.534 12.112-10.85 12.83-29.865 1.244-41.374zM58.479 95.85a4.63 4.63 0 00-6.54 0l-3.49 3.489c-1.795 1.721-1.794 4.818 0 6.54 1.724 1.791 4.818 1.79 6.54 0l3.49-3.49c1.792-1.719 1.792-4.825 0-6.54z"/></g><defs><clipPath id="clip0_75_878"><path fill="#fff" d="M0 0h111v111H0z"/></clipPath></defs></svg>