<svg width="186" height="50" fill="none" xmlns="http://www.w3.org/2000/svg"><path d="M.244 3.219H2.05l2.326 10.627L6.72 3.219h1.79l.243 13.101h-1.48l-.146-9.51-2.23 9.51h-1.04L1.643 6.81l-.146 9.51H0l.244-13.1zm10.528 0h5.108v1.358h-3.27v4.335h2.652v1.294H12.61v4.804h3.303v1.31h-5.14V3.22zm5.779 11.791h.602c.38-.313.694-.706.944-1.18.26-.475.488-1.24.683-2.297.206-1.068.352-2.545.44-4.432l.21-3.882h5.516V15.01h1.268v3.688H24.8l-.146-2.378h-6.54l-.146 2.378H16.55V15.01zm6.573 0V4.577h-2.132l-.13 2.96c-.076 1.823-.206 3.225-.39 4.206-.185.981-.396 1.677-.635 2.086a5.576 5.576 0 01-.976 1.181h4.262zm4.472-11.791h1.627v9.074l3.856-9.074h1.318V16.32h-1.61V7.1l-3.824 9.22h-1.367V3.22zM43.57 16.32h-7.108V3.22H38.3v11.79h3.742V3.22h1.838v11.79h1.252v3.688h-1.415l-.146-2.378zm3.011-13.101h1.627v9.074l3.856-9.074h1.318V16.32h-1.61V7.1l-3.824 9.22h-1.367V3.22zm8.866 0h1.838V8.88h3.384V3.219h1.838V16.32h-1.838v-6.13h-3.384v6.13h-1.838V3.22zm12.421 13.247c-1.301 0-2.218-.383-2.75-1.148-.53-.777-.796-1.844-.796-3.203V7.489c0-1.434.26-2.523.78-3.267.521-.744 1.443-1.116 2.766-1.116 1.182 0 2.028.318 2.538.954.52.636.78 1.574.78 2.814V7.91h-1.74v-.921c0-.604-.027-1.068-.081-1.392a1.255 1.255 0 00-.423-.776c-.217-.194-.57-.291-1.058-.291-.499 0-.873.108-1.122.323-.239.205-.396.496-.472.874-.076.367-.114.863-.114 1.488v5.192c0 .669.054 1.192.163 1.57.108.376.282.646.52.808.25.161.592.242 1.025.242.467 0 .814-.102 1.042-.307.227-.205.368-.485.422-.841.066-.356.098-.841.098-1.456v-.97h1.74v.97c0 1.305-.249 2.308-.748 3.009-.487.69-1.344 1.035-2.57 1.035zm5.07-13.247h1.838v5.823h.684l2.359-5.823h1.838l-2.603 6.227 2.928 6.874h-1.838l-2.668-6.389h-.7v6.39h-1.838V3.218zm8.262 0h1.626v9.074l3.856-9.074h1.317V16.32h-1.61V7.1l-3.823 9.22h-1.367V3.22zm8.864 0h1.627v9.074l3.856-9.074h1.318V16.32h-1.611V7.1l-3.823 9.22h-1.367V3.22zm3.563-1.02C92.89 2.2 92.347 2 92 1.602c-.336-.399-.504-.932-.504-1.601h1.009c.01.41.103.717.276.922.174.194.456.291.846.291.748 0 1.123-.404 1.123-1.213h1.025c0 .669-.174 1.202-.521 1.601-.336.4-.879.599-1.627.599zm16.129 14.121h-7.109V3.22h1.838v11.79h3.742V3.22h1.838v11.79h1.253v3.688h-1.415l-.147-2.378zm3.011-13.101h5.108v1.358h-3.27v4.335h2.652v1.294h-2.652v4.804h3.303v1.31h-5.141V3.22zm6.625 0h1.838V8.88h3.384V3.219h1.838V16.32h-1.838v-6.13h-3.384v6.13h-1.838V3.22zm10.567 1.358h-2.229V3.22h6.231v1.358h-2.164V16.32h-1.838V4.577zm5.272-1.358h3.27c1.139 0 1.963.307 2.473.922.52.614.781 1.515.781 2.7 0 1.068-.277 1.899-.83 2.492-.553.593-1.356.89-2.408.89h-1.448v6.097h-1.838V3.22zm2.684 5.693c.543 0 .96-.059 1.253-.178.304-.118.521-.323.651-.614s.195-.712.195-1.262c0-.668-.049-1.16-.146-1.472a1.026 1.026 0 00-.586-.663c-.282-.13-.732-.194-1.35-.194h-.863v4.383h.846zM.83 26.277h4.078v13.342l5.986-13.342h3.355v23.292h-4.164V35.996L3.982 49.57H.83V26.277zm17.29 0h5.553l2.574 13.544 2.777-13.544h5.35l.405 23.292h-3.673l-.434-15.5-2.719 15.5h-3.268l-2.892-15.614-.347 15.614h-3.73l.404-23.292zM37.76 45.14h4.455v4.429H37.76V45.14zm13.334.806c1.099.019 1.85-.125 2.255-.432.405-.306.685-.94.84-1.898.173-.977.365-2.894.578-5.75l.086-1.18.752-10.41h12.408V49.57h-5.148V30.216H60.29l-.463 7.448c-.25 3.585-.52 6.115-.81 7.591-.29 1.457-.906 2.55-1.85 3.278-.926.71-2.46 1.064-4.6 1.064-.636 0-1.127-.01-1.474-.028v-3.623zm20.599-19.669h4.078v13.342l5.987-13.342h3.355v23.292h-4.165V35.996L74.845 49.57h-3.152V26.277zM94.623 50c-2.333 0-3.991-.633-4.974-1.898-.984-1.265-1.475-3.067-1.475-5.406v-.834h4.858v.892c0 1.17.116 1.993.347 2.473.251.479.695.719 1.33.719.618 0 1.032-.24 1.245-.72.23-.479.347-1.265.347-2.357 0-1.246-.193-2.147-.579-2.703-.366-.575-1.07-.872-2.111-.892-.058-.019-.492-.029-1.302-.029v-3.134h1.186c1.08-.019 1.813-.306 2.198-.862.405-.556.608-1.457.608-2.703 0-.92-.145-1.61-.434-2.07-.29-.48-.752-.72-1.389-.72-.597 0-1.031.24-1.301.72-.25.478-.386 1.169-.405 2.07v1.294h-4.859v-1.41c0-2.07.588-3.67 1.764-4.802 1.196-1.13 2.806-1.696 4.83-1.696 2.063 0 3.664.537 4.801 1.61 1.157 1.074 1.736 2.636 1.736 4.687 0 1.323-.27 2.454-.81 3.393-.54.94-1.224 1.524-2.054 1.754.907.346 1.61.94 2.112 1.783.501.825.752 2.013.752 3.566 0 2.281-.511 4.064-1.533 5.348C98.489 49.358 96.86 50 94.623 50zm15.975-.086c-2.525 0-4.328-.642-5.408-1.927-1.08-1.303-1.62-3.22-1.62-5.75V33.58c0-2.53.54-4.429 1.62-5.694 1.08-1.284 2.883-1.926 5.408-1.926 2.545 0 4.358.642 5.438 1.926 1.099 1.285 1.648 3.183 1.648 5.694v8.655c0 2.53-.549 4.448-1.648 5.751-1.08 1.285-2.893 1.927-5.438 1.927zm0-3.652c.733 0 1.215-.24 1.446-.72.232-.498.347-1.168.347-2.012V32.315c0-.862-.115-1.533-.347-2.012-.231-.48-.713-.72-1.446-.72-.694 0-1.156.25-1.388.748-.231.48-.347 1.141-.347 1.985V43.53c0 .844.106 1.514.318 2.013.212.48.685.719 1.417.719zm10.324-19.985h5.176v9.432h3.616v-9.432h5.205v23.292h-5.205v-10.18h-3.616v10.18h-5.176V26.277zm24.275 23.637c-2.526 0-4.329-.642-5.409-1.927-1.079-1.303-1.619-3.22-1.619-5.75V33.58c0-2.53.54-4.429 1.619-5.694 1.08-1.284 2.883-1.926 5.409-1.926 2.545 0 4.357.642 5.437 1.926 1.099 1.285 1.649 3.183 1.649 5.694v8.655c0 2.53-.55 4.448-1.649 5.751-1.08 1.285-2.892 1.927-5.437 1.927zm0-3.652c.732 0 1.214-.24 1.446-.72.231-.498.347-1.168.347-2.012V32.315c0-.862-.116-1.533-.347-2.012-.232-.48-.714-.72-1.446-.72-.694 0-1.157.25-1.388.748-.232.48-.348 1.141-.348 1.985V43.53c0 .844.107 1.514.319 2.013.212.48.684.719 1.417.719zm10.236-19.985h6.103c1.523 0 2.815.163 3.875.489a4.73 4.73 0 012.603 1.811c.656.901.983 2.167.983 3.796 0 1.38-.299 2.454-.896 3.22-.598.767-1.446 1.256-2.545 1.467 1.349.173 2.381.738 3.094 1.697.714.958 1.07 2.262 1.07 3.91 0 4.601-2.362 6.902-7.085 6.902h-7.202V26.277zm6.189 9.317c1.099 0 1.842-.25 2.227-.748.405-.498.608-1.275.608-2.33 0-.92-.251-1.61-.752-2.07-.502-.479-1.234-.719-2.198-.719h-.897v5.867h1.012zm.087 10.38c1.099 0 1.87-.268 2.314-.805.463-.556.694-1.418.694-2.588 0-1.323-.231-2.252-.694-2.79-.444-.536-1.224-.804-2.343-.804h-1.07v6.987h1.099zm14.024-19.697h5.9L186 49.569h-4.772l-.781-4.918h-3.442l-.809 4.918h-4.888l4.425-23.292zm4.222 15.298l-1.243-9.087-1.244 9.087h2.487z" fill="#fff"/></svg>