<svg width="28" height="28" fill="none" xmlns="http://www.w3.org/2000/svg"><path d="M18.483 8.355l1.16-1.16 1.16 1.16-1.16 1.16-1.16-1.16zM4.1 23.9A13.956 13.956 0 0014 28c3.328 0 6.655-1.18 9.302-3.538l-7.562-7.561-1.16 1.16-1.74-1.74-1.16 1.16 1.16 1.16-1.16 1.16-1.16-1.16-3.48 3.48-1.16-1.16 3.48-3.48-1.16-1.16 1.16-1.16 1.16 1.16 1.16-1.16-1.74-1.74 1.16-1.16-7.562-7.563c-4.897 5.498-4.71 13.93.563 19.202z" fill="#fff"/><path d="M23.9 4.1A13.956 13.956 0 0014 0c-3.328 0-6.655 1.18-9.302 3.538L12.26 11.1l3.325-3.326-1.16-1.16 1.16-1.16 1.74 1.74 2.32-2.32 3.48 3.48-2.32 2.32 1.74 1.74-1.16 1.16-1.16-1.16L16.9 15.74l7.562 7.562c4.897-5.498 4.71-13.929-.563-19.201z" fill="#fff"/><path d="M12.257 13.42l2.166-2.165 2.32 2.32-2.166 2.165-2.32-2.32zm3.325-3.325l1.16-1.16 2.32 2.32-1.16 1.16-2.32-2.32z" fill="#fff"/></svg>