<svg width="114" height="114" fill="none" xmlns="http://www.w3.org/2000/svg"><g clip-path="url(#clip0_75_870)" fill="#fff" fill-opacity=".3"><path d="M51.99 23.49h10.02v7.877H51.99V23.49zM40.3 47.364v3.467L57 43.992l16.7 6.839v-3.467a6.976 6.976 0 00-3.508-6.043l-5.73-3.274H49.538l-5.73 3.274a6.976 6.976 0 00-3.506 6.043zm0 10.685v15.65h33.4V58.05L57 51.21l-16.7 6.838zm23.38 8.97H50.32V60.34h13.36v6.68z"/><path d="M57 0C42.463 0 29.199 5.446 19.13 14.405l21.21 21.21c.052-.031.103-.064.156-.093l4.816-2.753V16.811h23.38v15.958l4.816 2.753a13.67 13.67 0 016.873 11.842v28.292l19.216 19.216C108.555 84.802 114 71.538 114 57c0-31.48-25.52-57-57-57zm0 114c14.538 0 27.803-5.446 37.872-14.405L80.379 85.102v8.636H33.62V47.364c0-2.524.705-4.954 1.97-7.05L14.406 19.129C5.445 29.198 0 42.46 0 57c0 31.48 25.52 57 57 57z"/><path d="M40.3 80.379h33.4v6.68H40.3v-6.68z"/></g><defs><clipPath id="clip0_75_870"><path fill="#fff" d="M0 0h114v114H0z"/></clipPath></defs></svg>