<svg width="58" height="58" fill="none" xmlns="http://www.w3.org/2000/svg"><g opacity=".5" fill="#89A9D1"><path d="M32.818 29.238H27.63v4.916a.788.788 0 01-.793.793.788.788 0 01-.793-.793v-4.916H8.394v11.056c0 3.704 1.643 7.012 4.249 9.255a12.156 12.156 0 007.963 2.957c3.274 0 6.242-1.292 8.44-3.387a12.19 12.19 0 003.772-8.836V29.238zm-5.415 10.524a.796.796 0 01-.566.226c-.057 0-.102 0-.159-.011-.045-.011-.102-.023-.147-.045a.836.836 0 01-.136-.08c-.045-.034-.08-.056-.125-.102a.796.796 0 01-.226-.566.84.84 0 01.226-.555c.034-.034.08-.068.125-.102a.382.382 0 01.136-.068c.045-.023.102-.034.147-.045a.786.786 0 01.714.215.79.79 0 01.226.555.751.751 0 01-.215.578z"/><path d="M37.451 28.196a12.27 12.27 0 00-3.047.385v11.713c0 3.75-1.473 7.239-4.146 9.856a12.076 12.076 0 007.193 2.356c3.07 0 5.88-1.144 8.02-3.025a.136.136 0 01-.056-.056l-7.986-7.987a.8.8 0 010-1.121.8.8 0 011.121 0l7.986 7.986.057.057a12.122 12.122 0 003.025-8.02c-.012-6.707-5.45-12.144-12.167-12.144zm-.929 11.226a.807.807 0 01-.566.238c-.057 0-.102-.011-.159-.011a.558.558 0 01-.147-.046l-.136-.068c-.045-.034-.08-.056-.125-.102a.79.79 0 01-.226-.555c0-.056 0-.102.011-.158a.562.562 0 01.045-.148l.069-.136c.034-.045.056-.079.102-.124a.795.795 0 01.86-.17c.046.023.091.045.136.08.046.033.08.056.125.101.034.034.068.08.102.125.034.045.056.09.08.136.022.045.033.102.044.147.012.045.012.102.012.159 0 .17-.08.385-.227.532zm-3.704-21.716a12.16 12.16 0 00-3.58-8.632 12.185 12.185 0 00-8.632-3.58c-2.277 0-4.406.623-6.23 1.71a12.215 12.215 0 00-5.981 10.513v9.958h24.423v-9.97zm-15.893-6.22a7.275 7.275 0 00-3.546 6.22.788.788 0 01-.793.793.788.788 0 01-.793-.793 8.881 8.881 0 014.316-7.59.787.787 0 011.087.283.794.794 0 01-.271 1.088z"/></g></svg>