<svg width="58" height="58" fill="none" xmlns="http://www.w3.org/2000/svg"><g opacity=".5" fill="#fff"><path d="M32.818 29.238H27.63v4.917a.788.788 0 01-.793.793.788.788 0 01-.793-.793v-4.917H8.394v11.056c0 3.705 1.643 7.013 4.249 9.256a12.156 12.156 0 007.963 2.956c3.274 0 6.242-1.291 8.44-3.387a12.19 12.19 0 003.772-8.836V29.238zm-5.415 10.524a.796.796 0 01-.566.227c-.057 0-.102 0-.159-.012-.045-.011-.102-.022-.147-.045a.836.836 0 01-.136-.08c-.045-.033-.08-.056-.125-.101a.796.796 0 01-.226-.567c0-.203.09-.407.226-.555.034-.034.08-.068.125-.102a.383.383 0 01.136-.068c.045-.022.102-.034.147-.045a.786.786 0 01.94.77.751.751 0 01-.215.578z"/><path d="M37.012 28.195a12.23 12.23 0 00-3.047.386v11.713c0 3.75-1.473 7.238-4.147 9.855a12.076 12.076 0 007.194 2.356c3.07 0 5.879-1.144 8.02-3.024a.137.137 0 01-.057-.057l-7.986-7.986a.8.8 0 010-1.122.8.8 0 011.122 0l7.986 7.987.056.056a12.121 12.121 0 003.025-8.02c-.011-6.706-5.449-12.144-12.166-12.144zm-.93 11.227a.806.806 0 01-.566.237c-.056 0-.102-.011-.158-.011a.56.56 0 01-.147-.045l-.136-.068c-.046-.034-.08-.057-.125-.102a.79.79 0 01-.227-.555c0-.057 0-.102.012-.159a.558.558 0 01.045-.147l.068-.136c.034-.045.057-.08.102-.125a.795.795 0 01.86-.17.84.84 0 01.137.08c.045.034.08.056.124.102.035.034.069.079.102.124a.84.84 0 01.08.136c.022.046.034.102.045.148.011.045.011.101.011.158 0 .17-.079.385-.226.532zm-3.264-22.196c0-3.375-1.37-6.423-3.58-8.632a12.185 12.185 0 00-8.632-3.58c-2.277 0-4.406.624-6.23 1.711a12.215 12.215 0 00-5.981 10.513v9.957h24.423v-9.969zm-15.893-6.219a7.275 7.275 0 00-3.546 6.22.788.788 0 01-.793.792.788.788 0 01-.793-.793 8.881 8.881 0 014.316-7.59.787.787 0 011.087.284.794.794 0 01-.271 1.087z"/></g></svg>